<?xml version="1.0" standalone="no"?>
<!DOCTYPE svg PUBLIC "-//W3C//DTD SVG 1.1//EN" "http://www.w3.org/Graphics/SVG/1.1/DTD/svg11.dtd">
<svg xmlns="http://www.w3.org/2000/svg" id="Calque_1" data-name="Calque 1" viewBox="0 0 385.87 103.87" width="385.8699951171875" height="103.87000274658203">
  <defs>
    <style>
      .cls-1 {
        fill: #1e1e1c;
      }

      .cls-1, .cls-2 {
        stroke-width: 0px;
      }

      .cls-2 {
        fill: #1b9dd9;
      }
    </style>
  </defs>
  <g>
    <g id="_Path_" data-name="&amp;lt;Path&amp;gt;">
      <polygon class="cls-1" points="44.98 68.53 77.15 49.95 88.74 43.26 89.96 42.56 89.96 29.18 77.15 36.57 65.57 43.26 44.98 55.15 0 29.18 0 46.79 0 60.18 0 77.9 18.04 88.32 29.62 95.01 33.39 97.18 44.98 103.87 60.33 95.01 71.92 88.32 89.96 77.9 89.96 64.52 74.89 73.22 60.33 81.63 48.74 88.32 44.98 90.49 41.21 88.32 29.62 81.63 11.59 71.21 11.59 66.87 29.72 77.34 33.39 79.45 44.98 86.14 56.57 79.45 78.37 66.87 89.96 60.18 89.96 57.34 89.96 46.79 80.82 52.07 78.37 53.49 44.98 72.76 41.31 70.65 11.59 53.49 11.59 49.25 44.98 68.53"/>
    </g>
    <g id="_Path_-2" data-name="&amp;lt;Path&amp;gt;">
      <polygon class="cls-2" points="71.59 33.36 87.17 24.36 44.98 0 29.39 9 17.81 15.69 2.78 24.36 44.98 48.72 60 40.05 48.41 33.36 44.98 35.34 25.96 24.36 29.4 22.38 40.98 15.69 44.98 13.38 64 24.36 60 26.67 71.59 33.36"/>
    </g>
  </g>
  <g>
    <g>
      <polygon class="cls-1" points="110.99 43.47 123.8 43.47 123.8 37.38 110.99 37.38 110.99 32.52 125.53 32.52 125.53 26.22 102.92 26.22 102.92 55.04 126.06 55.04 126.06 48.74 110.99 48.74 110.99 43.47"/>
      <path class="cls-1" d="M150.27,40.12c-.96-.62-2.03-1.11-3.19-1.48-1.17-.37-2.33-.68-3.5-.93-1.17-.25-2.24-.49-3.21-.72-.97-.23-1.76-.54-2.35-.91-.59-.37-.89-.87-.89-1.5,0-.49.15-.93.45-1.32.3-.38.8-.69,1.48-.93.69-.23,1.59-.35,2.72-.35,1.26,0,2.57.19,3.91.56,1.34.37,2.7.93,4.08,1.67l2.51-6.05c-1.43-.82-3.05-1.45-4.88-1.87-1.83-.43-3.69-.64-5.58-.64-2.83,0-5.19.43-7.08,1.28s-3.32,1.98-4.26,3.38c-.95,1.4-1.42,2.97-1.42,4.69,0,1.54.3,2.81.91,3.81.6,1,1.39,1.81,2.35,2.43.96.62,2.02,1.12,3.19,1.5,1.17.38,2.33.7,3.5.95,1.17.25,2.23.49,3.19.74.96.25,1.74.56,2.35.95.6.39.91.91.91,1.57,0,.47-.16.87-.47,1.21-.32.34-.82.62-1.5.82-.69.21-1.59.31-2.72.31-1.67,0-3.36-.27-5.04-.8-1.69-.54-3.18-1.21-4.47-2.04l-2.68,6.01c1.37.93,3.15,1.7,5.33,2.29s4.45.89,6.82.89c2.85,0,5.22-.43,7.1-1.28,1.88-.85,3.29-1.98,4.24-3.4.95-1.41,1.42-2.96,1.42-4.63,0-1.51-.3-2.77-.89-3.77-.59-1-1.37-1.81-2.33-2.43Z"/>
      <path class="cls-1" d="M181.65,31.18c-1.04-1.61-2.52-2.83-4.43-3.69-1.91-.85-4.18-1.28-6.82-1.28h-13.18v28.83h8.15v-7.54h5.02c2.64,0,4.91-.43,6.82-1.3,1.91-.87,3.38-2.09,4.43-3.69,1.04-1.59,1.56-3.47,1.56-5.64s-.52-4.1-1.56-5.7ZM173.73,39.97c-.84.74-2.11,1.11-3.81,1.11h-4.53v-8.44h4.53c1.7,0,2.97.37,3.81,1.11.84.74,1.26,1.78,1.26,3.13s-.42,2.35-1.26,3.09Z"/>
      <path class="cls-1" d="M195,26.22l-12.72,28.83h8.32l2.25-5.6h12.22l2.25,5.6h8.48l-12.77-28.83h-8.03ZM195.25,43.43l3.7-9.22,3.7,9.22h-7.4Z"/>
      <path class="cls-1" d="M226.68,34.64c.7-.73,1.54-1.28,2.53-1.67.99-.38,2.07-.58,3.25-.58,1.37,0,2.62.29,3.73.87,1.11.58,2.13,1.41,3.07,2.51l5.19-4.69c-1.4-1.76-3.15-3.1-5.25-4.04-2.1-.93-4.48-1.4-7.14-1.4-2.28,0-4.39.36-6.32,1.09-1.94.73-3.61,1.76-5.02,3.11-1.41,1.35-2.52,2.93-3.32,4.76-.8,1.83-1.19,3.84-1.19,6.03s.4,4.21,1.19,6.03c.8,1.83,1.9,3.41,3.32,4.76,1.41,1.35,3.09,2.38,5.02,3.11,1.94.73,4.04,1.09,6.32,1.09,2.66,0,5.04-.47,7.14-1.42,2.1-.95,3.85-2.29,5.25-4.02l-5.19-4.69c-.93,1.1-1.96,1.94-3.07,2.51s-2.35.86-3.73.86c-1.18,0-2.26-.19-3.25-.58-.99-.38-1.83-.94-2.53-1.67-.7-.73-1.25-1.6-1.65-2.62-.4-1.02-.6-2.14-.6-3.38s.2-2.36.6-3.38c.4-1.02.95-1.89,1.65-2.62Z"/>
      <polygon class="cls-1" points="256.15 43.47 268.96 43.47 268.96 37.38 256.15 37.38 256.15 32.52 270.69 32.52 270.69 26.22 248.08 26.22 248.08 55.04 271.22 55.04 271.22 48.74 256.15 48.74 256.15 43.47"/>
      <path class="cls-1" d="M296.73,34.64c.7-.73,1.54-1.28,2.53-1.67.99-.38,2.07-.58,3.25-.58,1.37,0,2.62.29,3.73.87,1.11.58,2.13,1.41,3.07,2.51l5.19-4.69c-1.4-1.76-3.15-3.1-5.25-4.04-2.1-.93-4.48-1.4-7.14-1.4-2.28,0-4.39.36-6.32,1.09-1.94.73-3.61,1.76-5.02,3.11-1.41,1.35-2.52,2.93-3.32,4.76-.8,1.83-1.19,3.84-1.19,6.03s.4,4.21,1.19,6.03c.8,1.83,1.9,3.41,3.32,4.76,1.41,1.35,3.09,2.38,5.02,3.11,1.94.73,4.04,1.09,6.32,1.09,2.66,0,5.04-.47,7.14-1.42,2.1-.95,3.85-2.29,5.25-4.02l-5.19-4.69c-.93,1.1-1.96,1.94-3.07,2.51s-2.35.86-3.73.86c-1.18,0-2.26-.19-3.25-.58-.99-.38-1.83-.94-2.53-1.67-.7-.73-1.25-1.6-1.65-2.62-.4-1.02-.6-2.14-.6-3.38s.2-2.36.6-3.38c.4-1.02.95-1.89,1.65-2.62Z"/>
      <path class="cls-1" d="M343.49,29.9c-1.43-1.36-3.11-2.41-5.04-3.15-1.94-.74-4.07-1.11-6.4-1.11s-4.43.37-6.38,1.11c-1.95.74-3.64,1.79-5.09,3.15-1.44,1.36-2.56,2.94-3.36,4.76-.8,1.81-1.19,3.8-1.19,5.97s.4,4.16,1.19,5.97c.8,1.81,1.92,3.4,3.36,4.76,1.44,1.36,3.14,2.41,5.09,3.15,1.95.74,4.08,1.11,6.38,1.11s4.47-.37,6.4-1.11c1.94-.74,3.62-1.78,5.04-3.13,1.43-1.34,2.55-2.93,3.36-4.76.81-1.83,1.21-3.82,1.21-5.99s-.41-4.16-1.21-5.97c-.81-1.81-1.93-3.4-3.36-4.76ZM339.23,44.01c-.4,1.02-.95,1.89-1.65,2.62-.7.73-1.52,1.28-2.47,1.67-.95.38-1.97.58-3.07.58s-2.12-.19-3.07-.58c-.95-.38-1.77-.94-2.47-1.67-.7-.73-1.25-1.6-1.65-2.62-.4-1.02-.6-2.14-.6-3.38s.2-2.39.6-3.4c.4-1,.95-1.87,1.65-2.59.7-.73,1.52-1.28,2.47-1.67.95-.38,1.97-.58,3.07-.58s2.12.19,3.07.58c.95.38,1.77.94,2.47,1.67.7.73,1.25,1.59,1.65,2.59.4,1,.6,2.14.6,3.4s-.2,2.36-.6,3.38Z"/>
      <polygon class="cls-1" points="385.87 55.04 385.78 26.22 379.07 26.22 369.2 42.87 359.06 26.22 352.35 26.22 352.35 55.04 359.88 55.04 359.88 40.18 367.25 52.2 370.88 52.2 378.3 39.75 378.37 55.04 385.87 55.04"/>
    </g>
    <g>
      <path class="cls-1" d="M106.64,66.16c-.67,0-1.31.11-1.92.33-.61.22-1.13.52-1.57.91l.42.6c.37-.32.81-.59,1.33-.79.52-.21,1.08-.31,1.68-.31.84,0,1.49.21,1.93.63.44.42.66,1.04.66,1.85v.7h-2.98c-.8,0-1.44.11-1.92.34-.48.23-.82.52-1.03.88-.21.36-.31.76-.31,1.21,0,.49.13.92.38,1.3s.61.67,1.08.88c.47.21,1.03.31,1.68.31.87,0,1.58-.19,2.14-.56.42-.28.75-.64.99-1.07v1.56h.8v-5.52c0-1.08-.29-1.89-.87-2.43s-1.41-.82-2.48-.82ZM108.03,73.81c-.51.33-1.13.5-1.86.5s-1.36-.17-1.78-.5c-.42-.33-.63-.78-.63-1.33,0-.5.18-.92.54-1.25.36-.33.99-.5,1.89-.5h2.97v1.63c-.24.63-.62,1.12-1.13,1.45Z"/>
      <path class="cls-1" d="M127.21,68.19s-.02-.05-.03-.07c-.37-.63-.86-1.11-1.49-1.45-.63-.34-1.34-.51-2.13-.51s-1.56.18-2.21.53c-.65.36-1.17.85-1.55,1.48s-.58,1.37-.58,2.2.19,1.55.58,2.19c.38.64.9,1.14,1.55,1.5.65.36,1.39.54,2.21.54s1.5-.17,2.13-.52c.63-.34,1.13-.83,1.49-1.47v1.47c0,1.17-.28,2.02-.83,2.57-.55.54-1.41.82-2.58.82-.7,0-1.35-.11-1.96-.33-.61-.22-1.13-.53-1.56-.93l-.45.63c.44.43,1.02.77,1.73,1.02.71.24,1.46.37,2.25.37,1.4,0,2.45-.34,3.16-1.03.71-.68,1.06-1.75,1.06-3.21v-7.77h-.8v1.96ZM126.74,72.19c-.31.53-.73.94-1.26,1.23-.53.3-1.15.44-1.85.44s-1.29-.15-1.83-.44c-.54-.29-.96-.71-1.27-1.23-.31-.53-.46-1.13-.46-1.81s.15-1.29.46-1.82c.31-.52.73-.93,1.27-1.22.54-.29,1.15-.43,1.83-.43s1.32.14,1.85.43c.53.29.95.69,1.26,1.22s.46,1.13.46,1.82-.15,1.28-.46,1.81Z"/>
      <path class="cls-1" d="M143.64,66.71c-.63-.37-1.34-.55-2.13-.55s-1.5.19-2.13.57c-.63.38-1.13.9-1.49,1.56-.36.66-.54,1.43-.54,2.29s.19,1.62.58,2.28c.38.67.91,1.19,1.58,1.57s1.45.57,2.33.57c.67,0,1.29-.12,1.86-.36.57-.24,1.05-.59,1.43-1.06l-.48-.55c-.33.41-.74.72-1.23.92-.48.2-1,.3-1.56.3-.71,0-1.34-.15-1.9-.46-.56-.31-.99-.73-1.31-1.28-.29-.51-.44-1.08-.47-1.73h7.48s0-.09,0-.13,0-.08,0-.11c0-.87-.18-1.63-.54-2.29-.36-.66-.86-1.18-1.48-1.54ZM138.6,68.62c.29-.54.69-.96,1.19-1.27.51-.31,1.08-.46,1.73-.46s1.23.15,1.73.46.9.73,1.19,1.27c.25.45.38.96.41,1.51h-6.67c.04-.55.17-1.06.42-1.51Z"/>
      <path class="cls-1" d="M161.12,66.57c-.53-.27-1.15-.41-1.86-.41-.89,0-1.64.2-2.25.59-.53.35-.93.81-1.2,1.38v-1.91h-.8v8.7h.83v-4.64c0-.7.13-1.3.39-1.8s.64-.89,1.14-1.17c.5-.28,1.09-.42,1.77-.42.89,0,1.58.26,2.08.77.49.51.74,1.26.74,2.23v5.02h.83v-5.09c0-.81-.15-1.49-.44-2.04s-.71-.96-1.23-1.23Z"/>
      <path class="cls-1" d="M174.6,67.37c.54-.31,1.15-.46,1.83-.46.54,0,1.05.11,1.52.32s.86.54,1.17.98l.62-.45c-.36-.53-.82-.93-1.39-1.2-.57-.27-1.21-.4-1.91-.4-.85,0-1.6.19-2.26.56s-1.18.89-1.57,1.56c-.38.67-.58,1.43-.58,2.3s.19,1.62.58,2.28c.38.67.91,1.19,1.57,1.57s1.41.57,2.26.57c.7,0,1.34-.13,1.91-.4s1.04-.67,1.39-1.2l-.62-.45c-.31.44-.7.77-1.17.98s-.97.32-1.52.32c-.68,0-1.29-.15-1.83-.46-.54-.31-.96-.73-1.27-1.28s-.46-1.19-.46-1.93.15-1.38.46-1.93c.31-.55.73-.98,1.27-1.28Z"/>
      <path class="cls-1" d="M194.18,66.71c-.63-.37-1.34-.55-2.13-.55s-1.5.19-2.13.57c-.63.38-1.13.9-1.49,1.56-.36.66-.54,1.43-.54,2.29s.19,1.62.58,2.28c.38.67.91,1.19,1.58,1.57.67.38,1.45.57,2.33.57.67,0,1.29-.12,1.86-.36.57-.24,1.05-.59,1.43-1.06l-.48-.55c-.33.41-.74.72-1.23.92-.48.2-1,.3-1.56.3-.71,0-1.34-.15-1.9-.46-.56-.31-.99-.73-1.31-1.28-.29-.51-.44-1.08-.47-1.73h7.48s0-.09,0-.13,0-.08,0-.11c0-.87-.18-1.63-.54-2.29-.36-.66-.86-1.18-1.48-1.54ZM189.14,68.62c.29-.54.69-.96,1.19-1.27.51-.31,1.08-.46,1.73-.46s1.23.15,1.73.46.9.73,1.19,1.27c.25.45.38.96.41,1.51h-6.67c.04-.55.17-1.06.42-1.51Z"/>
      <path class="cls-1" d="M223.48,68.23s0-.01,0-.02c-.36-.66-.85-1.16-1.47-1.52s-1.31-.53-2.08-.53c-.81,0-1.54.19-2.19.56s-1.16.89-1.54,1.55c-.38.66-.57,1.43-.57,2.31s.19,1.63.57,2.3c.38.67.89,1.19,1.54,1.56s1.38.56,2.19.56,1.48-.18,2.09-.53c.62-.36,1.1-.87,1.46-1.53,0-.01.01-.03.02-.04v2.04h.82v-12.37h-.83v5.67ZM223.02,72.5c-.31.56-.72.99-1.25,1.29-.53.31-1.13.46-1.79.46s-1.26-.15-1.79-.46c-.53-.31-.94-.74-1.25-1.29-.31-.56-.46-1.19-.46-1.92s.15-1.38.46-1.93c.31-.55.72-.98,1.25-1.28.53-.31,1.13-.46,1.79-.46s1.26.15,1.79.46c.53.31.94.73,1.25,1.28.31.55.46,1.19.46,1.93s-.15,1.36-.46,1.92Z"/>
      <path class="cls-1" d="M239.93,66.71c-.63-.37-1.34-.55-2.13-.55s-1.5.19-2.13.57c-.63.38-1.13.9-1.49,1.56-.36.66-.54,1.43-.54,2.29s.19,1.62.58,2.28c.38.67.91,1.19,1.58,1.57s1.45.57,2.33.57c.67,0,1.29-.12,1.86-.36.57-.24,1.05-.59,1.43-1.06l-.48-.55c-.33.41-.74.72-1.23.92-.48.2-1,.3-1.56.3-.71,0-1.34-.15-1.9-.46-.56-.31-.99-.73-1.31-1.28-.29-.51-.44-1.08-.47-1.73h7.48s0-.09,0-.13,0-.08,0-.11c0-.87-.18-1.63-.54-2.29-.36-.66-.86-1.18-1.48-1.54ZM234.89,68.62c.29-.54.69-.96,1.19-1.27.51-.31,1.08-.46,1.73-.46s1.23.15,1.73.46.9.73,1.19,1.27c.25.45.38.96.41,1.51h-6.67c.04-.55.17-1.06.42-1.51Z"/>
      <path class="cls-1" d="M268.91,66.72c-.65-.37-1.39-.56-2.21-.56-.77,0-1.46.18-2.08.53-.62.36-1.11.86-1.47,1.53,0,.02-.02.04-.03.05v-2.05h-.8v11.94h.83v-5.21c.36.65.85,1.16,1.46,1.51.62.36,1.31.53,2.08.53.82,0,1.56-.19,2.21-.56.65-.37,1.16-.89,1.53-1.56.37-.67.56-1.43.56-2.3s-.19-1.63-.56-2.3c-.37-.67-.88-1.19-1.53-1.56ZM269.71,72.5c-.31.56-.73.99-1.26,1.29-.53.31-1.13.46-1.8.46s-1.26-.15-1.79-.46c-.53-.31-.95-.74-1.25-1.29-.31-.56-.46-1.19-.46-1.92s.15-1.38.46-1.93c.31-.55.72-.98,1.25-1.28.53-.31,1.13-.46,1.79-.46s1.27.15,1.8.46c.53.31.95.73,1.26,1.28.31.55.46,1.19.46,1.93s-.15,1.36-.46,1.92Z"/>
      <path class="cls-1" d="M287.13,70.86c0,.69-.13,1.29-.38,1.79-.26.51-.62.9-1.1,1.17-.48.28-1.05.42-1.7.42-.91,0-1.62-.26-2.12-.77s-.75-1.26-.75-2.23v-5.02h-.83v5.09c0,.81.15,1.49.44,2.04.29.55.71.96,1.26,1.23.54.27,1.19.41,1.93.41.82,0,1.53-.2,2.13-.59.52-.34.9-.8,1.16-1.36v1.88h.8v-8.7h-.83v4.64Z"/>
      <path class="cls-1" d="M304.82,66.72c-.65-.37-1.39-.56-2.21-.56-.77,0-1.46.18-2.08.53-.61.35-1.1.85-1.46,1.5v-5.64h-.83v12.37h.8v-2.06s.02.04.02.05c.36.67.85,1.18,1.47,1.53.62.36,1.31.53,2.08.53.82,0,1.56-.19,2.21-.56.65-.37,1.16-.89,1.53-1.56.37-.67.56-1.43.56-2.3s-.19-1.65-.56-2.31c-.37-.66-.88-1.18-1.53-1.55ZM305.63,72.5c-.31.56-.73.99-1.26,1.29-.53.31-1.13.46-1.8.46s-1.26-.15-1.79-.46c-.53-.31-.95-.74-1.25-1.29-.31-.56-.46-1.19-.46-1.92s.15-1.38.46-1.93c.31-.55.72-.98,1.25-1.28.53-.31,1.13-.46,1.79-.46s1.27.15,1.8.46c.53.31.95.73,1.26,1.28.31.55.46,1.19.46,1.93s-.15,1.36-.46,1.92Z"/>
      <rect class="cls-1" x="316.25" y="62.56" width=".83" height="12.37"/>
      <path class="cls-1" d="M327.78,62.76c-.19,0-.35.07-.48.2s-.2.3-.2.48c0,.18.07.33.2.47.13.13.29.2.48.2.2,0,.36-.07.49-.2.13-.13.19-.29.19-.48s-.06-.35-.19-.48c-.13-.13-.29-.19-.49-.19Z"/>
      <rect class="cls-1" x="327.36" y="66.23" width=".83" height="8.7"/>
      <path class="cls-1" d="M340.09,67.37c.54-.31,1.15-.46,1.83-.46.54,0,1.05.11,1.52.32s.86.54,1.17.98l.62-.45c-.36-.53-.82-.93-1.39-1.2-.57-.27-1.21-.4-1.91-.4-.84,0-1.6.19-2.26.56-.66.37-1.18.89-1.57,1.56s-.58,1.43-.58,2.3.19,1.62.58,2.28.91,1.19,1.57,1.57c.66.38,1.41.57,2.26.57.7,0,1.34-.13,1.91-.4.57-.27,1.04-.67,1.39-1.2l-.62-.45c-.31.44-.7.77-1.17.98s-.97.32-1.52.32c-.68,0-1.29-.15-1.83-.46-.54-.31-.96-.73-1.27-1.28-.31-.55-.46-1.19-.46-1.93s.15-1.38.46-1.93c.31-.55.73-.98,1.27-1.28Z"/>
      <path class="cls-1" d="M354.74,62.76c-.19,0-.35.07-.48.2-.13.13-.2.3-.2.48,0,.18.07.33.2.47s.29.2.48.2c.2,0,.36-.07.49-.2.13-.13.19-.29.19-.48s-.06-.35-.19-.48c-.13-.13-.29-.19-.49-.19Z"/>
      <rect class="cls-1" x="354.32" y="66.23" width=".83" height="8.7"/>
      <path class="cls-1" d="M368.04,74.28c-.52,0-.92-.15-1.2-.45-.28-.3-.42-.73-.42-1.28v-5.6h2.77v-.72h-2.77v-1.9h-.83v1.9h-1.6v.72h1.6v5.69c0,.73.2,1.31.61,1.73.41.42.99.63,1.76.63.33,0,.66-.05.98-.15.32-.1.59-.26.81-.47l-.35-.58c-.36.32-.81.48-1.35.48Z"/>
      <polygon class="cls-1" points="384.28 62.84 383.08 62.84 380.76 64.81 381.66 64.81 384.28 62.84"/>
      <path class="cls-1" d="M385.32,68.25c-.36-.66-.86-1.18-1.48-1.54-.63-.37-1.34-.55-2.13-.55s-1.5.19-2.13.57-1.13.9-1.49,1.56c-.36.66-.54,1.43-.54,2.29s.19,1.62.58,2.28.91,1.19,1.58,1.57c.67.38,1.45.57,2.33.57.67,0,1.29-.12,1.86-.36s1.05-.59,1.43-1.06l-.48-.55c-.33.41-.74.72-1.23.92-.48.2-1,.3-1.56.3-.71,0-1.35-.15-1.9-.46-.56-.31-.99-.73-1.31-1.28-.29-.51-.44-1.08-.47-1.73h7.48s0-.09,0-.13,0-.08,0-.11c0-.87-.18-1.63-.54-2.29ZM378.8,68.62c.29-.54.69-.96,1.19-1.27.51-.31,1.08-.46,1.73-.46s1.23.15,1.73.46.9.73,1.19,1.27c.25.45.38.96.41,1.51h-6.67c.04-.55.17-1.06.42-1.51Z"/>
    </g>
  </g>
</svg>